<svg xmlns="http://www.w3.org/2000/svg" xmlns:xlink="http://www.w3.org/1999/xlink" contentStyleType="text/css" data-diagram-type="CLASS" height="1307px" preserveAspectRatio="none" style="width:1010px;height:1307px;background:#FFFFFF;" version="1.1" viewBox="0 0 1010 1307" width="1010px" zoomAndPan="magnify"><title>E-Learning SMK System - Entity Relationship Diagram</title><defs/><g><g class="title" data-source-line="16"><text fill="#000000" font-family="Verdana" font-size="22" font-weight="bold" lengthAdjust="spacing" textLength="665.457" x="168.1379" y="37.1182">E-Learning SMK System - Entity Relationship Diagram</text></g><!--class guru--><g class="entity" data-entity="guru" data-source-line="18" data-uid="ent0002" id="entity_guru"><rect fill="#FFFFFF" height="282.2051" rx="2.5" ry="2.5" style="stroke:#000000;stroke-width:1;" width="171.7832" x="702" y="299.8373"/><ellipse cx="763.5996" cy="313.8373" fill="#FFFFFF" rx="9" ry="9" style="stroke:#000000;stroke-width:1;"/><path d="M767.2139,320.3373 L759.4941,320.3373 L759.4941,307.9442 L767.2139,307.9442 L767.2139,310.1024 L761.9429,310.1024 L761.9429,312.7753 L766.7158,312.7753 L766.7158,314.9335 L761.9429,314.9335 L761.9429,318.1791 L767.2139,318.1791 Z " fill="#000000"/><text fill="#000000" font-family="Verdana" font-size="14" lengthAdjust="spacing" textLength="41.084" x="781.0996" y="319.4052">GURU</text><line style="stroke:#000000;stroke-width:1;" x1="703" x2="872.7832" y1="327.8373" y2="327.8373"/><ellipse cx="713" cy="341.8446" fill="#FFFFFF" rx="3" ry="3" style="stroke:#000000;stroke-width:1;"/><text fill="#000000" font-family="Verdana" font-size="14" lengthAdjust="spacing" textLength="129.4111" x="720" y="345.9125">id_guru : int &#171;PK&#187;</text><line style="stroke:#000000;stroke-width:1;" x1="703" x2="872.7832" y1="352.852" y2="352.852"/><text fill="#000000" font-family="Verdana" font-size="14" lengthAdjust="spacing" textLength="159.7832" x="708" y="370.9271">nama_lengkap : string</text><text fill="#000000" font-family="Verdana" font-size="14" lengthAdjust="spacing" textLength="94.459" x="708" y="387.9418">email : string</text><text fill="#000000" font-family="Verdana" font-size="14" lengthAdjust="spacing" textLength="122.7803" x="708" y="404.9564">password : string</text><text fill="#000000" font-family="Verdana" font-size="14" lengthAdjust="spacing" textLength="77.834" x="708" y="421.9711">nip : string</text><text fill="#000000" font-family="Verdana" font-size="14" lengthAdjust="spacing" textLength="146.3574" x="708" y="438.9857">tempat_lahir : string</text><text fill="#000000" font-family="Verdana" font-size="14" lengthAdjust="spacing" textLength="139.4941" x="708" y="456.0004">tanggal_lahir : date</text><text fill="#000000" font-family="Verdana" font-size="14" lengthAdjust="spacing" textLength="153.6582" x="708" y="473.015">jenis_kelamin : string</text><text fill="#000000" font-family="Verdana" font-size="14" lengthAdjust="spacing" textLength="104.6104" x="708" y="490.0297">alamat : string</text><text fill="#000000" font-family="Verdana" font-size="14" lengthAdjust="spacing" textLength="109.0879" x="708" y="507.0443">no_telp : string</text><text fill="#000000" font-family="Verdana" font-size="14" lengthAdjust="spacing" textLength="83.8428" x="708" y="524.059">foto : string</text><text fill="#000000" font-family="Verdana" font-size="14" lengthAdjust="spacing" textLength="114.2559" x="708" y="541.0736">status : boolean</text><text fill="#000000" font-family="Verdana" font-size="14" lengthAdjust="spacing" textLength="153.9248" x="708" y="558.0883">created_at : datetime</text><text fill="#000000" font-family="Verdana" font-size="14" lengthAdjust="spacing" textLength="158.6211" x="708" y="575.1029">updated_at : datetime</text></g><!--class siswa--><g class="entity" data-entity="siswa" data-source-line="36" data-uid="ent0003" id="entity_siswa"><rect fill="#FFFFFF" height="316.2344" rx="2.5" ry="2.5" style="stroke:#000000;stroke-width:1;" width="183.7832" x="12" y="659.0473"/><ellipse cx="75.9185" cy="673.0473" fill="#FFFFFF" rx="9" ry="9" style="stroke:#000000;stroke-width:1;"/><path d="M79.5327,679.5473 L71.813,679.5473 L71.813,667.1542 L79.5327,667.1542 L79.5327,669.3124 L74.2617,669.3124 L74.2617,671.9853 L79.0347,671.9853 L79.0347,674.1435 L74.2617,674.1435 L74.2617,677.3891 L79.5327,677.3891 Z " fill="#000000"/><text fill="#000000" font-family="Verdana" font-size="14" lengthAdjust="spacing" textLength="48.4463" x="93.4185" y="678.6152">SISWA</text><line style="stroke:#000000;stroke-width:1;" x1="13" x2="194.7832" y1="687.0473" y2="687.0473"/><ellipse cx="23" cy="701.0546" fill="#FFFFFF" rx="3" ry="3" style="stroke:#000000;stroke-width:1;"/><text fill="#000000" font-family="Verdana" font-size="14" lengthAdjust="spacing" textLength="135.29" x="30" y="705.1225">id_siswa : int &#171;PK&#187;</text><line style="stroke:#000000;stroke-width:1;" x1="13" x2="194.7832" y1="712.062" y2="712.062"/><text fill="#000000" font-family="Verdana" font-size="14" lengthAdjust="spacing" textLength="159.7832" x="30" y="730.1371">nama_lengkap : string</text><text fill="#000000" font-family="Verdana" font-size="14" lengthAdjust="spacing" textLength="94.459" x="30" y="747.1518">email : string</text><text fill="#000000" font-family="Verdana" font-size="14" lengthAdjust="spacing" textLength="122.7803" x="30" y="764.1664">password : string</text><text fill="#000000" font-family="Verdana" font-size="14" lengthAdjust="spacing" textLength="76.4053" x="30" y="781.1811">nis : string</text><text fill="#000000" font-family="Verdana" font-size="14" lengthAdjust="spacing" textLength="85.2646" x="30" y="798.1957">nisn : string</text><text fill="#000000" font-family="Verdana" font-size="14" lengthAdjust="spacing" textLength="146.3574" x="30" y="815.2104">tempat_lahir : string</text><text fill="#000000" font-family="Verdana" font-size="14" lengthAdjust="spacing" textLength="139.4941" x="30" y="832.225">tanggal_lahir : date</text><text fill="#000000" font-family="Verdana" font-size="14" lengthAdjust="spacing" textLength="153.6582" x="30" y="849.2397">jenis_kelamin : string</text><text fill="#000000" font-family="Verdana" font-size="14" lengthAdjust="spacing" textLength="104.6104" x="30" y="866.2543">alamat : string</text><text fill="#000000" font-family="Verdana" font-size="14" lengthAdjust="spacing" textLength="109.0879" x="30" y="883.269">no_telp : string</text><text fill="#000000" font-family="Verdana" font-size="14" lengthAdjust="spacing" textLength="83.8428" x="30" y="900.2836">foto : string</text><ellipse cx="23" cy="913.2304" fill="none" rx="3" ry="3" style="stroke:#000000;stroke-width:1;"/><text fill="#000000" font-family="Verdana" font-size="14" lengthAdjust="spacing" textLength="132.7676" x="30" y="917.2983">id_kelas : int &#171;FK&#187;</text><text fill="#000000" font-family="Verdana" font-size="14" lengthAdjust="spacing" textLength="114.2559" x="30" y="934.3129">status : boolean</text><text fill="#000000" font-family="Verdana" font-size="14" lengthAdjust="spacing" textLength="153.9248" x="30" y="951.3276">created_at : datetime</text><text fill="#000000" font-family="Verdana" font-size="14" lengthAdjust="spacing" textLength="158.6211" x="30" y="968.3422">updated_at : datetime</text></g><!--class kelas--><g class="entity" data-entity="kelas" data-source-line="56" data-uid="ent0004" id="entity_kelas"><rect fill="#FFFFFF" height="163.1025" rx="2.5" ry="2.5" style="stroke:#000000;stroke-width:1;" width="237.9102" x="163.94" y="359.3973"/><ellipse cx="256.4019" cy="373.3973" fill="#FFFFFF" rx="9" ry="9" style="stroke:#000000;stroke-width:1;"/><path d="M260.0162,379.8973 L252.2964,379.8973 L252.2964,367.5042 L260.0162,367.5042 L260.0162,369.6624 L254.7452,369.6624 L254.7452,372.3353 L259.5181,372.3353 L259.5181,374.4935 L254.7452,374.4935 L254.7452,377.7391 L260.0162,377.7391 Z " fill="#000000"/><text fill="#000000" font-family="Verdana" font-size="14" lengthAdjust="spacing" textLength="45.4863" x="273.9019" y="378.9652">KELAS</text><line style="stroke:#000000;stroke-width:1;" x1="164.94" x2="400.8502" y1="387.3973" y2="387.3973"/><ellipse cx="174.94" cy="401.4046" fill="#FFFFFF" rx="3" ry="3" style="stroke:#000000;stroke-width:1;"/><text fill="#000000" font-family="Verdana" font-size="14" lengthAdjust="spacing" textLength="133.1641" x="181.94" y="405.4725">id_kelas : int &#171;PK&#187;</text><line style="stroke:#000000;stroke-width:1;" x1="164.94" x2="400.8502" y1="412.412" y2="412.412"/><text fill="#000000" font-family="Verdana" font-size="14" lengthAdjust="spacing" textLength="140.7725" x="181.94" y="430.4871">nama_kelas : string</text><ellipse cx="174.94" cy="443.4339" fill="none" rx="3" ry="3" style="stroke:#000000;stroke-width:1;"/><text fill="#000000" font-family="Verdana" font-size="14" lengthAdjust="spacing" textLength="149.6729" x="181.94" y="447.5018">id_jurusan : int &#171;FK&#187;</text><ellipse cx="174.94" cy="460.4486" fill="none" rx="3" ry="3" style="stroke:#000000;stroke-width:1;"/><text fill="#000000" font-family="Verdana" font-size="14" lengthAdjust="spacing" textLength="213.9102" x="181.94" y="464.5164">id_tahun_akademik : int &#171;FK&#187;</text><text fill="#000000" font-family="Verdana" font-size="14" lengthAdjust="spacing" textLength="100.5977" x="181.94" y="481.5311">kapasitas : int</text><text fill="#000000" font-family="Verdana" font-size="14" lengthAdjust="spacing" textLength="153.9248" x="181.94" y="498.5457">created_at : datetime</text><text fill="#000000" font-family="Verdana" font-size="14" lengthAdjust="spacing" textLength="158.6211" x="181.94" y="515.5604">updated_at : datetime</text></g><!--class jurusan--><g class="entity" data-entity="jurusan" data-source-line="67" data-uid="ent0005" id="entity_jurusan"><rect fill="#FFFFFF" height="146.0879" rx="2.5" ry="2.5" style="stroke:#000000;stroke-width:1;" width="174.0693" x="195.86" y="68.2473"/><ellipse cx="246.0416" cy="82.2473" fill="#FFFFFF" rx="9" ry="9" style="stroke:#000000;stroke-width:1;"/><path d="M249.6559,88.7473 L241.9362,88.7473 L241.9362,76.3542 L249.6559,76.3542 L249.6559,78.5124 L244.3849,78.5124 L244.3849,81.1853 L249.1579,81.1853 L249.1579,83.3435 L244.3849,83.3435 L244.3849,86.5891 L249.6559,86.5891 Z " fill="#000000"/><text fill="#000000" font-family="Verdana" font-size="14" lengthAdjust="spacing" textLength="66.2061" x="263.5416" y="87.8152">JURUSAN</text><line style="stroke:#000000;stroke-width:1;" x1="196.86" x2="368.9293" y1="96.2473" y2="96.2473"/><ellipse cx="206.86" cy="110.2546" fill="#FFFFFF" rx="3" ry="3" style="stroke:#000000;stroke-width:1;"/><text fill="#000000" font-family="Verdana" font-size="14" lengthAdjust="spacing" textLength="150.0693" x="213.86" y="114.3225">id_jurusan : int &#171;PK&#187;</text><line style="stroke:#000000;stroke-width:1;" x1="196.86" x2="368.9293" y1="121.262" y2="121.262"/><text fill="#000000" font-family="Verdana" font-size="14" lengthAdjust="spacing" textLength="157.6777" x="201.86" y="139.3371">nama_jurusan : string</text><text fill="#000000" font-family="Verdana" font-size="14" lengthAdjust="spacing" textLength="152.2295" x="201.86" y="156.3518">kode_jurusan : string</text><text fill="#000000" font-family="Verdana" font-size="14" lengthAdjust="spacing" textLength="118.7266" x="201.86" y="173.3664">deskripsi : string</text><text fill="#000000" font-family="Verdana" font-size="14" lengthAdjust="spacing" textLength="153.9248" x="201.86" y="190.3811">created_at : datetime</text><text fill="#000000" font-family="Verdana" font-size="14" lengthAdjust="spacing" textLength="158.6211" x="201.86" y="207.3957">updated_at : datetime</text></g><!--class mata_pelajaran--><g class="entity" data-entity="mata_pelajaran" data-source-line="77" data-uid="ent0006" id="entity_mata_pelajaran"><rect fill="#FFFFFF" height="163.1025" rx="2.5" ry="2.5" style="stroke:#000000;stroke-width:1;" width="170.6211" x="454.58" y="359.3973"/><ellipse cx="473.7829" cy="373.3973" fill="#FFFFFF" rx="9" ry="9" style="stroke:#000000;stroke-width:1;"/><path d="M477.3971,379.8973 L469.6774,379.8973 L469.6774,367.5042 L477.3971,367.5042 L477.3971,369.6624 L472.1261,369.6624 L472.1261,372.3353 L476.8991,372.3353 L476.8991,374.4935 L472.1261,374.4935 L472.1261,377.7391 L477.3971,377.7391 Z " fill="#000000"/><text fill="#000000" font-family="Verdana" font-size="14" lengthAdjust="spacing" textLength="128.8369" x="487.1613" y="378.9652">MATA_PELAJARAN</text><line style="stroke:#000000;stroke-width:1;" x1="455.58" x2="624.2011" y1="387.3973" y2="387.3973"/><ellipse cx="465.58" cy="401.4046" fill="#FFFFFF" rx="3" ry="3" style="stroke:#000000;stroke-width:1;"/><text fill="#000000" font-family="Verdana" font-size="14" lengthAdjust="spacing" textLength="139.9248" x="472.58" y="405.4725">id_mapel : int &#171;PK&#187;</text><line style="stroke:#000000;stroke-width:1;" x1="455.58" x2="624.2011" y1="412.412" y2="412.412"/><text fill="#000000" font-family="Verdana" font-size="14" lengthAdjust="spacing" textLength="147.5332" x="460.58" y="430.4871">nama_mapel : string</text><text fill="#000000" font-family="Verdana" font-size="14" lengthAdjust="spacing" textLength="142.085" x="460.58" y="447.5018">kode_mapel : string</text><text fill="#000000" font-family="Verdana" font-size="14" lengthAdjust="spacing" textLength="57.292" x="460.58" y="464.5164">sks : int</text><text fill="#000000" font-family="Verdana" font-size="14" lengthAdjust="spacing" textLength="118.7266" x="460.58" y="481.5311">deskripsi : string</text><text fill="#000000" font-family="Verdana" font-size="14" lengthAdjust="spacing" textLength="153.9248" x="460.58" y="498.5457">created_at : datetime</text><text fill="#000000" font-family="Verdana" font-size="14" lengthAdjust="spacing" textLength="158.6211" x="460.58" y="515.5604">updated_at : datetime</text></g><!--class tahun_akademik--><g class="entity" data-entity="tahun_akademik" data-source-line="88" data-uid="ent0007" id="entity_tahun_akademik"><rect fill="#FFFFFF" height="163.1025" rx="2.5" ry="2.5" style="stroke:#000000;stroke-width:1;" width="238.3066" x="694.74" y="59.7373"/><ellipse cx="743.0383" cy="73.7373" fill="#FFFFFF" rx="9" ry="9" style="stroke:#000000;stroke-width:1;"/><path d="M746.6526,80.2373 L738.9329,80.2373 L738.9329,67.8442 L746.6526,67.8442 L746.6526,70.0024 L741.3816,70.0024 L741.3816,72.6753 L746.1546,72.6753 L746.1546,74.8335 L741.3816,74.8335 L741.3816,78.0791 L746.6526,78.0791 Z " fill="#000000"/><text fill="#000000" font-family="Verdana" font-size="14" lengthAdjust="spacing" textLength="134.21" x="760.5383" y="79.3052">TAHUN_AKADEMIK</text><line style="stroke:#000000;stroke-width:1;" x1="695.74" x2="932.0466" y1="87.7373" y2="87.7373"/><ellipse cx="705.74" cy="101.7446" fill="#FFFFFF" rx="3" ry="3" style="stroke:#000000;stroke-width:1;"/><text fill="#000000" font-family="Verdana" font-size="14" lengthAdjust="spacing" textLength="214.3066" x="712.74" y="105.8125">id_tahun_akademik : int &#171;PK&#187;</text><line style="stroke:#000000;stroke-width:1;" x1="695.74" x2="932.0466" y1="112.752" y2="112.752"/><text fill="#000000" font-family="Verdana" font-size="14" lengthAdjust="spacing" textLength="173.7217" x="700.74" y="130.8271">tahun_akademik : string</text><text fill="#000000" font-family="Verdana" font-size="14" lengthAdjust="spacing" textLength="147.1367" x="700.74" y="147.8418">tanggal_mulai : date</text><text fill="#000000" font-family="Verdana" font-size="14" lengthAdjust="spacing" textLength="155.9277" x="700.74" y="164.8564">tanggal_selesai : date</text><text fill="#000000" font-family="Verdana" font-size="14" lengthAdjust="spacing" textLength="154.1299" x="700.74" y="181.8711">status_aktif : boolean</text><text fill="#000000" font-family="Verdana" font-size="14" lengthAdjust="spacing" textLength="153.9248" x="700.74" y="198.8857">created_at : datetime</text><text fill="#000000" font-family="Verdana" font-size="14" lengthAdjust="spacing" textLength="158.6211" x="700.74" y="215.9004">updated_at : datetime</text></g><!--class jadwal--><g class="entity" data-entity="jadwal" data-source-line="99" data-uid="ent0008" id="entity_jadwal"><rect fill="#FFFFFF" height="214.1465" rx="2.5" ry="2.5" style="stroke:#000000;stroke-width:1;" width="182.6211" x="448.58" y="710.0873"/><ellipse cx="507.1767" cy="724.0873" fill="#FFFFFF" rx="9" ry="9" style="stroke:#000000;stroke-width:1;"/><path d="M510.7909,730.5873 L503.0712,730.5873 L503.0712,718.1942 L510.7909,718.1942 L510.7909,720.3524 L505.5199,720.3524 L505.5199,723.0253 L510.2929,723.0253 L510.2929,725.1835 L505.5199,725.1835 L505.5199,728.4291 L510.7909,728.4291 Z " fill="#000000"/><text fill="#000000" font-family="Verdana" font-size="14" lengthAdjust="spacing" textLength="57.9277" x="524.6767" y="729.6552">JADWAL</text><line style="stroke:#000000;stroke-width:1;" x1="449.58" x2="630.2011" y1="738.0873" y2="738.0873"/><ellipse cx="459.58" cy="752.0946" fill="#FFFFFF" rx="3" ry="3" style="stroke:#000000;stroke-width:1;"/><text fill="#000000" font-family="Verdana" font-size="14" lengthAdjust="spacing" textLength="142.6523" x="466.58" y="756.1625">id_jadwal : int &#171;PK&#187;</text><line style="stroke:#000000;stroke-width:1;" x1="449.58" x2="630.2011" y1="763.102" y2="763.102"/><ellipse cx="459.58" cy="777.1093" fill="none" rx="3" ry="3" style="stroke:#000000;stroke-width:1;"/><text fill="#000000" font-family="Verdana" font-size="14" lengthAdjust="spacing" textLength="129.0146" x="466.58" y="781.1771">id_guru : int &#171;FK&#187;</text><ellipse cx="459.58" cy="794.1239" fill="none" rx="3" ry="3" style="stroke:#000000;stroke-width:1;"/><text fill="#000000" font-family="Verdana" font-size="14" lengthAdjust="spacing" textLength="132.7676" x="466.58" y="798.1918">id_kelas : int &#171;FK&#187;</text><ellipse cx="459.58" cy="811.1386" fill="none" rx="3" ry="3" style="stroke:#000000;stroke-width:1;"/><text fill="#000000" font-family="Verdana" font-size="14" lengthAdjust="spacing" textLength="139.5283" x="466.58" y="815.2064">id_mapel : int &#171;FK&#187;</text><text fill="#000000" font-family="Verdana" font-size="14" lengthAdjust="spacing" textLength="83.4941" x="466.58" y="832.2211">hari : string</text><text fill="#000000" font-family="Verdana" font-size="14" lengthAdjust="spacing" textLength="121.8301" x="466.58" y="849.2357">jam_mulai : time</text><text fill="#000000" font-family="Verdana" font-size="14" lengthAdjust="spacing" textLength="130.6211" x="466.58" y="866.2504">jam_selesai : time</text><text fill="#000000" font-family="Verdana" font-size="14" lengthAdjust="spacing" textLength="114.502" x="466.58" y="883.265">ruangan : string</text><text fill="#000000" font-family="Verdana" font-size="14" lengthAdjust="spacing" textLength="153.9248" x="466.58" y="900.2797">created_at : datetime</text><text fill="#000000" font-family="Verdana" font-size="14" lengthAdjust="spacing" textLength="158.6211" x="466.58" y="917.2943">updated_at : datetime</text></g><!--class materi--><g class="entity" data-entity="materi" data-source-line="113" data-uid="ent0009" id="entity_materi"><rect fill="#FFFFFF" height="214.1465" rx="2.5" ry="2.5" style="stroke:#000000;stroke-width:1;" width="182.6211" x="230.58" y="710.0873"/><ellipse cx="290.9028" cy="724.0873" fill="#FFFFFF" rx="9" ry="9" style="stroke:#000000;stroke-width:1;"/><path d="M294.517,730.5873 L286.7973,730.5873 L286.7973,718.1942 L294.517,718.1942 L294.517,720.3524 L289.246,720.3524 L289.246,723.0253 L294.019,723.0253 L294.019,725.1835 L289.246,725.1835 L289.246,728.4291 L294.517,728.4291 Z " fill="#000000"/><text fill="#000000" font-family="Verdana" font-size="14" lengthAdjust="spacing" textLength="54.4756" x="308.4028" y="729.6552">MATERI</text><line style="stroke:#000000;stroke-width:1;" x1="231.58" x2="412.2011" y1="738.0873" y2="738.0873"/><ellipse cx="241.58" cy="752.0946" fill="#FFFFFF" rx="3" ry="3" style="stroke:#000000;stroke-width:1;"/><text fill="#000000" font-family="Verdana" font-size="14" lengthAdjust="spacing" textLength="142.6934" x="248.58" y="756.1625">id_materi : int &#171;PK&#187;</text><line style="stroke:#000000;stroke-width:1;" x1="231.58" x2="412.2011" y1="763.102" y2="763.102"/><ellipse cx="241.58" cy="777.1093" fill="none" rx="3" ry="3" style="stroke:#000000;stroke-width:1;"/><text fill="#000000" font-family="Verdana" font-size="14" lengthAdjust="spacing" textLength="129.0146" x="248.58" y="781.1771">id_guru : int &#171;FK&#187;</text><ellipse cx="241.58" cy="794.1239" fill="none" rx="3" ry="3" style="stroke:#000000;stroke-width:1;"/><text fill="#000000" font-family="Verdana" font-size="14" lengthAdjust="spacing" textLength="139.5283" x="248.58" y="798.1918">id_mapel : int &#171;FK&#187;</text><ellipse cx="241.58" cy="811.1386" fill="none" rx="3" ry="3" style="stroke:#000000;stroke-width:1;"/><text fill="#000000" font-family="Verdana" font-size="14" lengthAdjust="spacing" textLength="132.7676" x="248.58" y="815.2064">id_kelas : int &#171;FK&#187;</text><text fill="#000000" font-family="Verdana" font-size="14" lengthAdjust="spacing" textLength="146.1113" x="248.58" y="832.2211">judul_materi : string</text><text fill="#000000" font-family="Verdana" font-size="14" lengthAdjust="spacing" textLength="106.1758" x="248.58" y="849.2357">deskripsi : text</text><text fill="#000000" font-family="Verdana" font-size="14" lengthAdjust="spacing" textLength="117.7627" x="248.58" y="866.2504">file_path : string</text><text fill="#000000" font-family="Verdana" font-size="14" lengthAdjust="spacing" textLength="112.6768" x="248.58" y="883.265">tipe_file : string</text><text fill="#000000" font-family="Verdana" font-size="14" lengthAdjust="spacing" textLength="153.9248" x="248.58" y="900.2797">created_at : datetime</text><text fill="#000000" font-family="Verdana" font-size="14" lengthAdjust="spacing" textLength="158.6211" x="248.58" y="917.2943">updated_at : datetime</text></g><!--class nilai--><g class="entity" data-entity="nilai" data-source-line="127" data-uid="ent0010" id="entity_nilai"><rect fill="#FFFFFF" height="248.1758" rx="2.5" ry="2.5" style="stroke:#000000;stroke-width:1;" width="237.9102" x="634.94" y="1052.2773"/><ellipse cx="730.3345" cy="1066.2773" fill="#FFFFFF" rx="9" ry="9" style="stroke:#000000;stroke-width:1;"/><path d="M733.9488,1072.7773 L726.2291,1072.7773 L726.2291,1060.3842 L733.9488,1060.3842 L733.9488,1062.5424 L728.6778,1062.5424 L728.6778,1065.2153 L733.4507,1065.2153 L733.4507,1067.3735 L728.6778,1067.3735 L728.6778,1070.6191 L733.9488,1070.6191 Z " fill="#000000"/><text fill="#000000" font-family="Verdana" font-size="14" lengthAdjust="spacing" textLength="39.6211" x="747.8345" y="1071.8452">NILAI</text><line style="stroke:#000000;stroke-width:1;" x1="635.94" x2="871.8502" y1="1080.2773" y2="1080.2773"/><ellipse cx="645.94" cy="1094.2846" fill="#FFFFFF" rx="3" ry="3" style="stroke:#000000;stroke-width:1;"/><text fill="#000000" font-family="Verdana" font-size="14" lengthAdjust="spacing" textLength="125.7881" x="652.94" y="1098.3525">id_nilai : int &#171;PK&#187;</text><line style="stroke:#000000;stroke-width:1;" x1="635.94" x2="871.8502" y1="1105.292" y2="1105.292"/><ellipse cx="645.94" cy="1119.2993" fill="none" rx="3" ry="3" style="stroke:#000000;stroke-width:1;"/><text fill="#000000" font-family="Verdana" font-size="14" lengthAdjust="spacing" textLength="134.8936" x="652.94" y="1123.3671">id_siswa : int &#171;FK&#187;</text><ellipse cx="645.94" cy="1136.3139" fill="none" rx="3" ry="3" style="stroke:#000000;stroke-width:1;"/><text fill="#000000" font-family="Verdana" font-size="14" lengthAdjust="spacing" textLength="139.5283" x="652.94" y="1140.3818">id_mapel : int &#171;FK&#187;</text><ellipse cx="645.94" cy="1153.3286" fill="none" rx="3" ry="3" style="stroke:#000000;stroke-width:1;"/><text fill="#000000" font-family="Verdana" font-size="14" lengthAdjust="spacing" textLength="129.0146" x="652.94" y="1157.3964">id_guru : int &#171;FK&#187;</text><ellipse cx="645.94" cy="1170.3432" fill="none" rx="3" ry="3" style="stroke:#000000;stroke-width:1;"/><text fill="#000000" font-family="Verdana" font-size="14" lengthAdjust="spacing" textLength="213.9102" x="652.94" y="1174.4111">id_tahun_akademik : int &#171;FK&#187;</text><text fill="#000000" font-family="Verdana" font-size="14" lengthAdjust="spacing" textLength="123.8809" x="652.94" y="1191.4257">nilai_tugas : float</text><text fill="#000000" font-family="Verdana" font-size="14" lengthAdjust="spacing" textLength="106.75" x="652.94" y="1208.4404">nilai_uts : float</text><text fill="#000000" font-family="Verdana" font-size="14" lengthAdjust="spacing" textLength="109.6416" x="652.94" y="1225.455">nilai_uas : float</text><text fill="#000000" font-family="Verdana" font-size="14" lengthAdjust="spacing" textLength="120.4492" x="652.94" y="1242.4697">nilai_akhir : float</text><text fill="#000000" font-family="Verdana" font-size="14" lengthAdjust="spacing" textLength="121.126" x="652.94" y="1259.4843">semester : string</text><text fill="#000000" font-family="Verdana" font-size="14" lengthAdjust="spacing" textLength="153.9248" x="652.94" y="1276.499">created_at : datetime</text><text fill="#000000" font-family="Verdana" font-size="14" lengthAdjust="spacing" textLength="158.6211" x="652.94" y="1293.5136">updated_at : datetime</text></g><!--class absensi--><g class="entity" data-entity="absensi" data-source-line="143" data-uid="ent0011" id="entity_absensi"><rect fill="#FFFFFF" height="180.1172" rx="2.5" ry="2.5" style="stroke:#000000;stroke-width:1;" width="182.6211" x="353.58" y="1086.3073"/><ellipse cx="409.3774" cy="1100.3073" fill="#FFFFFF" rx="9" ry="9" style="stroke:#000000;stroke-width:1;"/><path d="M412.9916,1106.8073 L405.2719,1106.8073 L405.2719,1094.4142 L412.9916,1094.4142 L412.9916,1096.5724 L407.7206,1096.5724 L407.7206,1099.2453 L412.4936,1099.2453 L412.4936,1101.4035 L407.7206,1101.4035 L407.7206,1104.6491 L412.9916,1104.6491 Z " fill="#000000"/><text fill="#000000" font-family="Verdana" font-size="14" lengthAdjust="spacing" textLength="63.5264" x="426.8774" y="1105.8752">ABSENSI</text><line style="stroke:#000000;stroke-width:1;" x1="354.58" x2="535.2011" y1="1114.3073" y2="1114.3073"/><ellipse cx="364.58" cy="1128.3146" fill="#FFFFFF" rx="3" ry="3" style="stroke:#000000;stroke-width:1;"/><text fill="#000000" font-family="Verdana" font-size="14" lengthAdjust="spacing" textLength="149.7549" x="371.58" y="1132.3825">id_absensi : int &#171;PK&#187;</text><line style="stroke:#000000;stroke-width:1;" x1="354.58" x2="535.2011" y1="1139.322" y2="1139.322"/><ellipse cx="364.58" cy="1153.3293" fill="none" rx="3" ry="3" style="stroke:#000000;stroke-width:1;"/><text fill="#000000" font-family="Verdana" font-size="14" lengthAdjust="spacing" textLength="134.8936" x="371.58" y="1157.3971">id_siswa : int &#171;FK&#187;</text><ellipse cx="364.58" cy="1170.3439" fill="none" rx="3" ry="3" style="stroke:#000000;stroke-width:1;"/><text fill="#000000" font-family="Verdana" font-size="14" lengthAdjust="spacing" textLength="142.2559" x="371.58" y="1174.4118">id_jadwal : int &#171;FK&#187;</text><text fill="#000000" font-family="Verdana" font-size="14" lengthAdjust="spacing" textLength="99.668" x="371.58" y="1191.4264">tanggal : date</text><text fill="#000000" font-family="Verdana" font-size="14" lengthAdjust="spacing" textLength="99.2988" x="371.58" y="1208.4411">status : string</text><text fill="#000000" font-family="Verdana" font-size="14" lengthAdjust="spacing" textLength="136.124" x="371.58" y="1225.4557">keterangan : string</text><text fill="#000000" font-family="Verdana" font-size="14" lengthAdjust="spacing" textLength="153.9248" x="371.58" y="1242.4704">created_at : datetime</text><text fill="#000000" font-family="Verdana" font-size="14" lengthAdjust="spacing" textLength="158.6211" x="371.58" y="1259.485">updated_at : datetime</text></g><!--link guru to jadwal--><g class="link" data-entity-1="guru" data-entity-2="jadwal" data-source-line="156" data-uid="lnk12" id="link_guru_jadwal"><path codeLine="156" d="M773.1119,589.6714 C766.9019,606.8614 760.94,615.5573 748.89,629.0473 C720.53,660.8073 692.49,634.2173 657.89,659.0473 C638.49,672.9673 632.2315,677.0579 616.8815,695.9479" fill="none" id="guru-jadwal" style="stroke:#000000;stroke-width:1;"/><line style="stroke:#000000;stroke-width:1;" x1="770.7089" x2="778.233" y1="584.5503" y2="587.2684"/><line style="stroke:#000000;stroke-width:1;" x1="769.6896" x2="777.2137" y1="587.3718" y2="590.0899"/><line style="stroke:#000000;stroke-width:1;" x1="773.1119" x2="775.83" y1="589.6714" y2="582.1473"/><line style="stroke:#000000;stroke-width:1;" x1="610.5751" x2="610.1865" y1="703.7087" y2="713.7011"/><line style="stroke:#000000;stroke-width:1;" x1="610.5751" x2="600.8735" y1="703.7087" y2="706.1335"/><line style="stroke:#000000;stroke-width:1;" x1="610.5751" x2="605.53" y1="703.7087" y2="709.9173"/><ellipse cx="614.3589" cy="699.0522" fill="none" rx="4" ry="4" style="stroke:#000000;stroke-width:1;"/><text fill="#000000" font-family="Verdana" font-size="13" lengthAdjust="spacing" textLength="62.353" x="762.09" y="626.1171">mengajar</text></g><!--link kelas to jadwal--><g class="link" data-entity-1="kelas" data-entity-2="jadwal" data-source-line="157" data-uid="lnk13" id="link_kelas_jadwal"><path codeLine="157" d="M298.2851,530.3088 C307.9951,566.8388 322.57,600.4273 350.89,629.0473 C377.61,656.0373 400.93,635.7173 430.89,659.0473 C448.97,673.1173 454.3695,676.6553 468.4595,695.3053" fill="none" id="kelas-jadwal" style="stroke:#000000;stroke-width:1;"/><line style="stroke:#000000;stroke-width:1;" x1="293.3918" x2="301.1233" y1="527.4706" y2="525.4155"/><line style="stroke:#000000;stroke-width:1;" x1="294.1625" x2="301.894" y1="530.3699" y2="528.3148"/><line style="stroke:#000000;stroke-width:1;" x1="298.2851" x2="296.23" y1="530.3088" y2="522.5773"/><line style="stroke:#000000;stroke-width:1;" x1="474.4876" x2="484.0973" y1="703.2842" y2="706.0505"/><line style="stroke:#000000;stroke-width:1;" x1="474.4876" x2="474.5227" y1="703.2842" y2="713.2841"/><line style="stroke:#000000;stroke-width:1;" x1="474.4876" x2="479.31" y1="703.2842" y2="709.6673"/><ellipse cx="470.8708" cy="698.4968" fill="none" rx="4" ry="4" style="stroke:#000000;stroke-width:1;"/><text fill="#000000" font-family="Verdana" font-size="13" lengthAdjust="spacing" textLength="77.7905" x="351.89" y="626.1171">dijadwalkan</text></g><!--link mata_pelajaran to jadwal--><g class="link" data-entity-1="mata_pelajaran" data-entity-2="jadwal" data-source-line="158" data-uid="lnk14" id="link_mata_pelajaran_jadwal"><path codeLine="158" d="M538.0226,530.8459 C537.5026,559.0659 537.15,582.9573 536.89,612.0473 C536.61,643.7673 536.6095,660.2595 537.0995,691.6995" fill="none" id="mata_pelajaran-jadwal" style="stroke:#000000;stroke-width:1;"/><line style="stroke:#000000;stroke-width:1;" x1="534.097" x2="542.0956" y1="526.7729" y2="526.9203"/><line style="stroke:#000000;stroke-width:1;" x1="534.0417" x2="542.0404" y1="529.7724" y2="529.9198"/><line style="stroke:#000000;stroke-width:1;" x1="538.0226" x2="538.17" y1="530.8459" y2="522.8473"/><line style="stroke:#000000;stroke-width:1;" x1="537.2553" x2="543.3793" y1="701.6983" y2="709.6038"/><line style="stroke:#000000;stroke-width:1;" x1="537.2553" x2="531.3807" y1="701.6983" y2="709.7908"/><line style="stroke:#000000;stroke-width:1;" x1="537.2553" x2="537.38" y1="701.6983" y2="709.6973"/><ellipse cx="537.1618" cy="695.699" fill="none" rx="4" ry="4" style="stroke:#000000;stroke-width:1;"/><text fill="#000000" font-family="Verdana" font-size="13" lengthAdjust="spacing" textLength="61.0327" x="537.89" y="626.1171">diajarkan</text></g><!--link guru to materi--><g class="link" data-entity-1="guru" data-entity-2="materi" data-source-line="160" data-uid="lnk15" id="link_guru_materi"><path codeLine="160" d="M696.4043,560.2519 C669.3043,588.7219 642.76,610.6173 607.89,629.0473 C537.35,666.3373 498.23,616.2573 430.89,659.0473 C410.58,671.9573 403.8972,675.8079 389.1672,695.2579" fill="none" id="guru-materi" style="stroke:#000000;stroke-width:1;"/><line style="stroke:#000000;stroke-width:1;" x1="696.2649" x2="702.0594" y1="554.5967" y2="560.1124"/><line style="stroke:#000000;stroke-width:1;" x1="694.1965" x2="699.991" y1="556.7697" y2="562.2854"/><line style="stroke:#000000;stroke-width:1;" x1="696.4043" x2="701.92" y1="560.2519" y2="554.4573"/><line style="stroke:#000000;stroke-width:1;" x1="383.1299" x2="383.0831" y1="703.2298" y2="713.2297"/><line style="stroke:#000000;stroke-width:1;" x1="383.1299" x2="373.5169" y1="703.2298" y2="705.9849"/><line style="stroke:#000000;stroke-width:1;" x1="383.1299" x2="378.3" y1="703.2298" y2="709.6073"/><ellipse cx="386.7522" cy="698.4467" fill="none" rx="4" ry="4" style="stroke:#000000;stroke-width:1;"/><text fill="#000000" font-family="Verdana" font-size="13" lengthAdjust="spacing" textLength="62.2896" x="632.89" y="626.1171">membuat</text></g><!--link mata_pelajaran to materi--><g class="link" data-entity-1="mata_pelajaran" data-entity-2="materi" data-source-line="161" data-uid="lnk16" id="link_mata_pelajaran_materi"><path codeLine="161" d="M488.8325,529.5996 C456.9725,584.2796 427.6304,634.6439 393.0104,694.0739" fill="none" id="mata_pelajaran-materi" style="stroke:#000000;stroke-width:1;"/><line style="stroke:#000000;stroke-width:1;" x1="487.3901" x2="494.3024" y1="524.1297" y2="528.1572"/><line style="stroke:#000000;stroke-width:1;" x1="485.8798" x2="492.7921" y1="526.7218" y2="530.7493"/><line style="stroke:#000000;stroke-width:1;" x1="488.8325" x2="492.86" y1="529.5996" y2="522.6873"/><line style="stroke:#000000;stroke-width:1;" x1="387.9768" x2="389.1345" y1="702.7147" y2="712.6474"/><line style="stroke:#000000;stroke-width:1;" x1="387.9768" x2="378.7655" y1="702.7147" y2="706.6072"/><line style="stroke:#000000;stroke-width:1;" x1="387.9768" x2="383.95" y1="702.7147" y2="709.6273"/><ellipse cx="390.997" cy="697.5302" fill="none" rx="4" ry="4" style="stroke:#000000;stroke-width:1;"/><text fill="#000000" font-family="Verdana" font-size="13" lengthAdjust="spacing" textLength="35.2993" x="438.43" y="626.1171">berisi</text></g><!--link kelas to materi--><g class="link" data-entity-1="kelas" data-entity-2="materi" data-source-line="162" data-uid="lnk17" id="link_kelas_materi"><path codeLine="162" d="M263.1872,530.6433 C258.0772,563.6833 256.46,594.3273 261.89,629.0473 C266.06,655.6773 267.9959,666.5051 276.1159,692.5151" fill="none" id="kelas-materi" style="stroke:#000000;stroke-width:1;"/><line style="stroke:#000000;stroke-width:1;" x1="259.8456" x2="267.7516" y1="526.0789" y2="527.3017"/><line style="stroke:#000000;stroke-width:1;" x1="259.3871" x2="267.2931" y1="529.0437" y2="530.2664"/><line style="stroke:#000000;stroke-width:1;" x1="263.1872" x2="264.41" y1="530.6433" y2="522.7373"/><line style="stroke:#000000;stroke-width:1;" x1="279.096" x2="287.2074" y1="702.0608" y2="707.9093"/><line style="stroke:#000000;stroke-width:1;" x1="279.096" x2="275.7526" y1="702.0608" y2="711.4853"/><line style="stroke:#000000;stroke-width:1;" x1="279.096" x2="281.48" y1="702.0608" y2="709.6973"/><ellipse cx="277.308" cy="696.3334" fill="none" rx="4" ry="4" style="stroke:#000000;stroke-width:1;"/><text fill="#000000" font-family="Verdana" font-size="13" lengthAdjust="spacing" textLength="37.4956" x="262.89" y="626.1171">untuk</text></g><!--link siswa to nilai--><g class="link" data-entity-1="siswa" data-entity-2="nilai" data-source-line="164" data-uid="lnk18" id="link_siswa_nilai"><path codeLine="164" d="M202.2436,967.6689 C207.5936,972.3089 207.11,971.3873 212.89,975.2773 C277.31,1018.7073 481.95,1022.9673 553.89,1052.2773 C581.08,1063.3573 593.2919,1068.7826 619.0919,1084.0226" fill="none" id="siswa-nilai" style="stroke:#000000;stroke-width:1;"/><line style="stroke:#000000;stroke-width:1;" x1="196.601" x2="201.8426" y1="968.0699" y2="962.0263"/><line style="stroke:#000000;stroke-width:1;" x1="198.8674" x2="204.109" y1="970.0355" y2="963.9919"/><line style="stroke:#000000;stroke-width:1;" x1="202.2436" x2="196.2" y1="967.6689" y2="962.4273"/><line style="stroke:#000000;stroke-width:1;" x1="627.702" x2="637.6416" y1="1089.1085" y2="1088.0113"/><line style="stroke:#000000;stroke-width:1;" x1="627.702" x2="631.5384" y1="1089.1085" y2="1098.3433"/><line style="stroke:#000000;stroke-width:1;" x1="627.702" x2="634.59" y1="1089.1085" y2="1093.1773"/><ellipse cx="622.5359" cy="1086.057" fill="none" rx="4" ry="4" style="stroke:#000000;stroke-width:1;"/><text fill="#000000" font-family="Verdana" font-size="13" lengthAdjust="spacing" textLength="54.9961" x="397.94" y="1019.3471">memiliki</text></g><!--link mata_pelajaran to nilai--><g class="link" data-entity-1="mata_pelajaran" data-entity-2="nilai" data-source-line="165" data-uid="lnk19" id="link_mata_pelajaran_nilai"><path codeLine="165" d="M590.797,529.9988 C612.307,569.8888 632.73,612.3173 648.89,659.0473 C694.04,789.5873 719.825,927.9612 735.535,1034.1212" fill="none" id="mata_pelajaran-nilai" style="stroke:#000000;stroke-width:1;"/><line style="stroke:#000000;stroke-width:1;" x1="585.3778" x2="592.4193" y1="528.3766" y2="524.5796"/><line style="stroke:#000000;stroke-width:1;" x1="586.8016" x2="593.8431" y1="531.0171" y2="527.2201"/><line style="stroke:#000000;stroke-width:1;" x1="590.797" x2="587" y1="529.9988" y2="522.9573"/><line style="stroke:#000000;stroke-width:1;" x1="736.9989" x2="744.1054" y1="1044.0135" y2="1051.049"/><line style="stroke:#000000;stroke-width:1;" x1="736.9989" x2="732.2346" y1="1044.0135" y2="1052.8056"/><line style="stroke:#000000;stroke-width:1;" x1="736.9989" x2="738.17" y1="1044.0135" y2="1051.9273"/><ellipse cx="736.1205" cy="1038.0781" fill="none" rx="4" ry="4" style="stroke:#000000;stroke-width:1;"/><text fill="#000000" font-family="Verdana" font-size="13" lengthAdjust="spacing" textLength="38.4033" x="726.42" y="822.7371">dinilai</text></g><!--link guru to nilai--><g class="link" data-entity-1="guru" data-entity-2="nilai" data-source-line="166" data-uid="lnk20" id="link_guru_nilai"><path codeLine="166" d="M829.5758,590.3324 C831.4958,600.2824 831.63,602.3573 832.89,612.0473 C852.6,763.5973 824.0695,920.3285 794.8995,1034.3985" fill="none" id="guru-nilai" style="stroke:#000000;stroke-width:1;"/><line style="stroke:#000000;stroke-width:1;" x1="824.8903" x2="832.7454" y1="587.1627" y2="585.647"/><line style="stroke:#000000;stroke-width:1;" x1="825.4587" x2="833.3138" y1="590.1084" y2="588.5926"/><line style="stroke:#000000;stroke-width:1;" x1="829.5758" x2="828.06" y1="590.3324" y2="582.4773"/><line style="stroke:#000000;stroke-width:1;" x1="792.422" x2="796.2529" y1="1044.0867" y2="1053.3238"/><line style="stroke:#000000;stroke-width:1;" x1="792.422" x2="784.6271" y1="1044.0867" y2="1050.3508"/><line style="stroke:#000000;stroke-width:1;" x1="792.422" x2="790.44" y1="1044.0867" y2="1051.8373"/><ellipse cx="793.9085" cy="1038.2738" fill="none" rx="4" ry="4" style="stroke:#000000;stroke-width:1;"/><text fill="#000000" font-family="Verdana" font-size="13" lengthAdjust="spacing" textLength="47.125" x="839.85" y="822.7371">menilai</text></g><!--link tahun_akademik to nilai--><g class="link" data-entity-1="tahun_akademik" data-entity-2="nilai" data-source-line="167" data-uid="lnk21" id="link_tahun_akademik_nilai"><path codeLine="167" d="M865.3641,230.2894 C877.1741,254.1894 884.67,273.7873 890.89,299.8373 C960.57,591.8473 987.07,689.2573 895.89,975.2773 C887.42,1001.8673 883.6303,1012.7528 868.3303,1036.8428" fill="none" id="tahun_akademik-nilai" style="stroke:#000000;stroke-width:1;"/><line style="stroke:#000000;stroke-width:1;" x1="860.006" x2="867.1781" y1="228.4754" y2="224.9313"/><line style="stroke:#000000;stroke-width:1;" x1="861.335" x2="868.5071" y1="231.165" y2="227.6209"/><line style="stroke:#000000;stroke-width:1;" x1="865.3641" x2="861.82" y1="230.2894" y2="223.1173"/><line style="stroke:#000000;stroke-width:1;" x1="862.969" x2="863.7448" y1="1045.2842" y2="1055.2541"/><line style="stroke:#000000;stroke-width:1;" x1="862.969" x2="853.6152" y1="1045.2842" y2="1048.8205"/><line style="stroke:#000000;stroke-width:1;" x1="862.969" x2="858.68" y1="1045.2842" y2="1052.0373"/><ellipse cx="866.1858" cy="1040.2194" fill="none" rx="4" ry="4" style="stroke:#000000;stroke-width:1;"/><text fill="#000000" font-family="Verdana" font-size="13" lengthAdjust="spacing" textLength="48.6929" x="954.04" y="626.1171">periode</text></g><!--link siswa to absensi--><g class="link" data-entity-1="siswa" data-entity-2="absensi" data-source-line="169" data-uid="lnk22" id="link_siswa_absensi"><path codeLine="169" d="M201.1409,961.8112 C206.6609,968.5912 207.23,968.9873 212.89,975.2773 C255.32,1022.4273 294.5878,1057.7192 339.3678,1094.0892" fill="none" id="siswa-absensi" style="stroke:#000000;stroke-width:1;"/><line style="stroke:#000000;stroke-width:1;" x1="195.5135" x2="201.7174" y1="961.2347" y2="956.1838"/><line style="stroke:#000000;stroke-width:1;" x1="197.4076" x2="203.6115" y1="963.5612" y2="958.5102"/><line style="stroke:#000000;stroke-width:1;" x1="201.1409" x2="196.09" y1="961.8112" y2="955.6073"/><line style="stroke:#000000;stroke-width:1;" x1="347.1302" x2="357.1227" y1="1100.3937" y2="1100.7799"/><line style="stroke:#000000;stroke-width:1;" x1="347.1302" x2="349.5573" y1="1100.3937" y2="1110.0947"/><line style="stroke:#000000;stroke-width:1;" x1="347.1302" x2="353.34" y1="1100.3937" y2="1105.4373"/><ellipse cx="342.4728" cy="1096.611" fill="none" rx="4" ry="4" style="stroke:#000000;stroke-width:1;"/><text fill="#000000" font-family="Verdana" font-size="13" lengthAdjust="spacing" textLength="33.249" x="254.55" y="1019.3471">hadir</text></g><!--link jadwal to absensi--><g class="link" data-entity-1="jadwal" data-entity-2="absensi" data-source-line="170" data-uid="lnk23" id="link_jadwal_absensi"><path codeLine="170" d="M509.5932,932.0984 C495.9132,983.5184 486.3673,1019.4323 473.3273,1068.4523" fill="none" id="jadwal-absensi" style="stroke:#000000;stroke-width:1;"/><line style="stroke:#000000;stroke-width:1;" x1="506.7561" x2="514.4871" y1="927.2044" y2="929.2612"/><line style="stroke:#000000;stroke-width:1;" x1="505.9848" x2="513.7158" y1="930.1036" y2="932.1604"/><line style="stroke:#000000;stroke-width:1;" x1="509.5932" x2="511.65" y1="932.0984" y2="924.3673"/><line style="stroke:#000000;stroke-width:1;" x1="470.7566" x2="474.4984" y1="1078.1162" y2="1087.3897"/><line style="stroke:#000000;stroke-width:1;" x1="470.7566" x2="462.9016" y1="1078.1162" y2="1084.3049"/><line style="stroke:#000000;stroke-width:1;" x1="470.7566" x2="468.7" y1="1078.1162" y2="1085.8473"/><ellipse cx="472.299" cy="1072.3178" fill="none" rx="4" ry="4" style="stroke:#000000;stroke-width:1;"/><text fill="#000000" font-family="Verdana" font-size="13" lengthAdjust="spacing" textLength="44.3003" x="490.54" y="1019.3471">dicatat</text></g><!--link jurusan to kelas--><g class="link" data-entity-1="jurusan" data-entity-2="kelas" data-source-line="172" data-uid="lnk24" id="link_jurusan_kelas"><path codeLine="172" d="M282.89,222.7273 C282.89,266.3473 282.89,295.9873 282.89,341.0473" fill="none" id="jurusan-kelas" style="stroke:#000000;stroke-width:1;"/><line style="stroke:#000000;stroke-width:1;" x1="278.89" x2="286.89" y1="218.7273" y2="218.7273"/><line style="stroke:#000000;stroke-width:1;" x1="278.89" x2="286.89" y1="221.7273" y2="221.7273"/><line style="stroke:#000000;stroke-width:1;" x1="282.89" x2="282.89" y1="222.7273" y2="214.7273"/><line style="stroke:#000000;stroke-width:1;" x1="282.89" x2="288.89" y1="351.0473" y2="359.0473"/><line style="stroke:#000000;stroke-width:1;" x1="282.89" x2="276.89" y1="351.0473" y2="359.0473"/><line style="stroke:#000000;stroke-width:1;" x1="282.89" x2="282.89" y1="351.0473" y2="359.0473"/><ellipse cx="282.89" cy="345.0473" fill="none" rx="4" ry="4" style="stroke:#000000;stroke-width:1;"/><text fill="#000000" font-family="Verdana" font-size="13" lengthAdjust="spacing" textLength="54.9961" x="283.89" y="266.9071">memiliki</text></g><!--link tahun_akademik to kelas--><g class="link" data-entity-1="tahun_akademik" data-entity-2="kelas" data-source-line="173" data-uid="lnk25" id="link_tahun_akademik_kelas"><path codeLine="173" d="M687.0108,182.9633 C610.1808,210.2333 517.52,248.4973 436.89,299.8373 C410.52,316.6373 397.6872,325.9454 374.6372,346.9754" fill="none" id="tahun_akademik-kelas" style="stroke:#000000;stroke-width:1;"/><line style="stroke:#000000;stroke-width:1;" x1="689.4424" x2="692.1184" y1="177.8557" y2="185.3949"/><line style="stroke:#000000;stroke-width:1;" x1="686.6152" x2="689.2912" y1="178.8592" y2="186.3984"/><line style="stroke:#000000;stroke-width:1;" x1="687.0108" x2="694.55" y1="182.9633" y2="180.2873"/><line style="stroke:#000000;stroke-width:1;" x1="367.2499" x2="365.384" y1="353.7153" y2="363.5397"/><line style="stroke:#000000;stroke-width:1;" x1="367.2499" x2="357.296" y1="353.7153" y2="354.6749"/><line style="stroke:#000000;stroke-width:1;" x1="367.2499" x2="361.34" y1="353.7153" y2="359.1073"/><ellipse cx="371.6823" cy="349.6714" fill="none" rx="4" ry="4" style="stroke:#000000;stroke-width:1;"/><text fill="#000000" font-family="Verdana" font-size="13" lengthAdjust="spacing" textLength="48.6929" x="515.64" y="266.9071">periode</text></g><!--link kelas to siswa--><g class="link" data-entity-1="kelas" data-entity-2="siswa" data-source-line="174" data-uid="lnk26" id="link_kelas_siswa"><path codeLine="174" d="M240.8185,529.9044 C221.8085,569.6544 209.4269,595.5392 187.0369,642.3492" fill="none" id="kelas-siswa" style="stroke:#000000;stroke-width:1;"/><line style="stroke:#000000;stroke-width:1;" x1="238.9357" x2="246.1528" y1="524.5701" y2="528.0216"/><line style="stroke:#000000;stroke-width:1;" x1="237.6414" x2="244.8585" y1="527.2765" y2="530.7281"/><line style="stroke:#000000;stroke-width:1;" x1="240.8185" x2="244.27" y1="529.9044" y2="522.6873"/><line style="stroke:#000000;stroke-width:1;" x1="182.722" x2="184.6827" y1="651.3704" y2="661.1763"/><line style="stroke:#000000;stroke-width:1;" x1="182.722" x2="173.8573" y1="651.3704" y2="655.9983"/><line style="stroke:#000000;stroke-width:1;" x1="182.722" x2="179.27" y1="651.3704" y2="658.5873"/><ellipse cx="185.3109" cy="645.9577" fill="none" rx="4" ry="4" style="stroke:#000000;stroke-width:1;"/><text fill="#000000" font-family="Verdana" font-size="13" lengthAdjust="spacing" textLength="35.2993" x="199.76" y="626.1171">berisi</text></g><!--SRC=[pLPDRzim3BtxLsYv35WHODjnA0fuQxQrQOEYRh6ZmTIgpLYM3Kj6rttyzz5Ix5Yoqmrh1goND8-C-TuZAVc5pdZ1MIK0PQ1ob1NKKB0rtELfNJOo-L2AicOF6Me-Y7EfKJ-oxm6Zl_TUii0qqslHS1ijwuJNDh8Mb6hGZwNK4NxZxCth_liAY4bO8uZWvw1MpUyqo5JmWvHxErqk83rKOJ6_u51Bb2cBBfSiUbIQ5spE5bRlDHUWiPGgmugT8gJ4BmYsPim-tLxVpXWebZPrioNxYc4Ic-_l64hDZe-lbYSd9ZIVcmy91SI2opI7YfAKhgcwYV02KBXG1Keza48NbUZzaaXNe6C16TPUX9nCGVIX1BJrRSCbgZWdWGLAzpT066YlP1bhBhoozwKkNKHfq8qYR5sMWeCqu5tDgMeIcsUs13GMbaHJ9HEHdpkBexFeIsWyLgWUO6Yo1Vwfose4oF_KzwFMaVQXgdVaO-V8eNkoN5o4aUc9BJZeYSjWiYTTYaz-GpkZG8xfcwY6h94nv93m0lDn4dKP5Egk-7CbdjDcH-7AYEo83MJwN2U5xf86KlCouTEHXAkynagX2pz3n6Lu4yPNrAppy7ghXSOBueewiA6Jrf5K0C5F2-fIV3aJkCg7ZJYyj9lmy-qg3fVXwUBoR6caUHCoaBPdTdoDexI9RIuQkZU7szm551TSkI6xTlH0ZVU7MxxpyFHBU6474v874CvSMcIVmgFHtUGksPxpusWy7tqiWzhhwWQAtgPULWlkBEhXkY7x_4LutiGlhi-wIUT4pPbmW_ojENiCUCguJPCqObTtpx9h_jMkoJqA7jDradcpXnMFszZ1R5gTNOJM9ObjemOcMU19ZznxzyzDUiBRtvtkXbMiczIuV2zAq0EyqPFeP2xazZhUuOfUX-cbhpwOk-7xQB6AhB-mLbmgn-4E-ckFlINlWzkZQ7m4UKSs9x67MRkNplkn2ao7V_oOpyllh6SvA-WbhBrlPe5Tar52WlR_7EGiy6weYUGsObATUlsMKRrYtO3UzwXTufe-5NgqTk56wYQdAhONst2t7sqL59ZZlZ9zOeBctvd3Tl2ORTHR0J-l8b9qr_fqTiCqoo11ydZhr3YUu1qH9Lk2xlLZczCTNWD9qsJwn9wCurmtixsllm00]--></g></svg>